<svg width="22" height="22" viewBox="0 0 22 22" fill="none" xmlns="http://www.w3.org/2000/svg">
<path d="M21.0434 10.0435H0.956506C0.428237 10.0435 0 10.4717 0 11C0 11.5282 0.428237 11.9565 0.956506 11.9565H21.0434C21.5717 11.9565 22 11.5282 22 11C22 10.4717 21.5717 10.0435 21.0434 10.0435Z" fill="#1D1F24"/>
<path d="M0.956506 5.26085H21.0434C21.5717 5.26085 22 4.83261 22 4.30435C22 3.77608 21.5717 3.34784 21.0434 3.34784H0.956506C0.428237 3.34784 0 3.77608 0 4.30435C0 4.83261 0.428237 5.26085 0.956506 5.26085Z" fill="#1D1F24"/>
<path d="M21.0434 16.7391H0.956506C0.428237 16.7391 0 17.1674 0 17.6957C0 18.2239 0.428237 18.6522 0.956506 18.6522H21.0434C21.5717 18.6522 22 18.2239 22 17.6957C22 17.1674 21.5717 16.7391 21.0434 16.7391Z" fill="#1D1F24"/>
</svg>
