<svg width="18" height="19" viewBox="0 0 18 19" fill="none" xmlns="http://www.w3.org/2000/svg">
<g clip-path="url(#clip0_0_605)">
<path d="M17.7803 17.2197L13.3035 12.743C14.5235 11.2509 15.1233 9.34706 14.9789 7.42516C14.8345 5.50326 13.9569 3.71039 12.5277 2.41738C11.0985 1.12437 9.22694 0.430158 7.30023 0.478332C5.37352 0.526506 3.53903 1.31338 2.17621 2.6762C0.813393 4.03902 0.0265174 5.87351 -0.0216564 7.80022C-0.0698303 9.72693 0.624383 11.5985 1.91739 13.0277C3.2104 14.4569 5.00327 15.3345 6.92517 15.4789C8.84707 15.6233 10.7509 15.0235 12.243 13.8035L16.7197 18.2802C16.8612 18.4169 17.0507 18.4925 17.2473 18.4907C17.4439 18.489 17.6321 18.4102 17.7711 18.2711C17.9102 18.132 17.989 17.9439 17.9908 17.7473C17.9925 17.5506 17.9169 17.3612 17.7803 17.2197ZM7.5 14C6.31331 14 5.15327 13.6481 4.16658 12.9888C3.17988 12.3295 2.41085 11.3924 1.95672 10.2961C1.5026 9.19973 1.38378 7.99333 1.61529 6.82945C1.8468 5.66556 2.41824 4.59646 3.25736 3.75735C4.09647 2.91823 5.16557 2.34679 6.32946 2.11528C7.49334 1.88377 8.69974 2.00259 9.7961 2.45671C10.8925 2.91084 11.8295 3.67987 12.4888 4.66657C13.1481 5.65326 13.5 6.8133 13.5 7.99999C13.4982 9.59074 12.8655 11.1158 11.7407 12.2407C10.6158 13.3655 9.09075 13.9982 7.5 14Z" fill="#1D1F24"/>
</g>
<defs>
<clipPath id="clip0_0_605">
<rect width="18" height="18" fill="white" transform="translate(0 0.5)"/>
</clipPath>
</defs>
</svg>
