<svg width="12" height="13" viewBox="0 0 12 13" fill="none" xmlns="http://www.w3.org/2000/svg">
<path d="M6.865 2.25501L7.745 4.01501C7.865 4.26001 8.185 4.49501 8.455 4.54001L10.05 4.80501C11.07 4.97501 11.31 5.71501 10.575 6.44501L9.335 7.68501C9.125 7.89501 9.01 8.30001 9.075 8.59001L9.43 10.125C9.71 11.34 9.065 11.81 7.99 11.175L6.495 10.29C6.225 10.13 5.78 10.13 5.505 10.29L4.01 11.175C2.94 11.81 2.29 11.335 2.57 10.125L2.925 8.59001C2.99 8.30001 2.875 7.89501 2.665 7.68501L1.425 6.44501C0.695 5.71501 0.93 4.97501 1.95 4.80501L3.545 4.54001C3.81 4.49501 4.13 4.26001 4.25 4.01501L5.13 2.25501C5.61 1.30001 6.39 1.30001 6.865 2.25501Z" fill="#827BEB" stroke="#827BEB" stroke-linecap="round" stroke-linejoin="round"/>
</svg>
